<?xml version="1.0" encoding="UTF-8"?>
<svg version="1.1" xmlns="http://www.w3.org/2000/svg" width="1080" height="1080">
<path d="M0 0 C1.30917892 -0.00701431 2.61835785 -0.01402863 3.96720886 -0.02125549 C8.17085255 -0.04065589 12.37444106 -0.04568979 16.578125 -0.046875 C17.65278959 -0.04753778 17.65278959 -0.04753778 18.74916458 -0.04821396 C40.58593564 -0.05527651 62.14979342 0.30469298 83.828125 3.203125 C85.15729345 3.37185076 86.4865605 3.5398013 87.81591797 3.70703125 C138.07949278 10.11041483 187.45413089 23.81225075 233.828125 44.203125 C234.85873047 44.65526367 235.88933594 45.10740234 236.95117188 45.57324219 C268.47968583 59.5136959 298.73824607 76.18242538 326.828125 96.203125 C327.54274902 96.70666504 328.25737305 97.21020508 328.99365234 97.72900391 C339.35197853 105.0290079 349.33407901 112.66974121 359.08398438 120.76318359 C361.53979237 122.79066898 364.03135368 124.77318196 366.515625 126.765625 C371.78366796 131.07656105 376.75704807 135.67314098 381.7265625 140.3203125 C384.28052016 142.70679753 386.88659329 145.02433432 389.515625 147.328125 C394.51302929 151.80770615 399.26280967 156.52865398 404.015625 161.265625 C405.15680786 162.39991943 405.15680786 162.39991943 406.32104492 163.55712891 C410.47031026 167.71771248 414.45064392 171.9658425 418.28442383 176.41870117 C420.32425875 178.77662517 422.45199313 181.04803185 424.578125 183.328125 C429.32687787 188.5359718 433.68045692 193.98012103 437.98828125 199.5546875 C439.85909299 201.97376268 441.76041048 204.36164974 443.69921875 206.7265625 C504.42229181 280.89516895 542.84115125 375.98931869 558.03125 524.81640625 C558.03407738 525.58982046 558.03690475 526.36323467 558.03981781 527.16008568 C558.05470243 531.27005713 558.06399398 535.37999458 558.06835938 539.48999023 C558.07270037 542.80651108 558.08643582 546.12276536 558.109375 549.43920898 C558.29951249 577.52912977 556.96482198 605.23026746 552.515625 633.015625 C552.41174469 633.67938141 552.30786438 634.34313782 552.20083618 635.02700806 C543.22237045 692.25811974 524.82690308 746.60009969 498.828125 798.203125 C498.37872559 799.10305176 497.92932617 800.00297852 497.46630859 800.93017578 C487.99926724 819.80885247 476.83462206 837.83896412 464.828125 855.203125 C464.36196777 855.88036621 463.89581055 856.55760742 463.41552734 857.25537109 C456.56015822 867.18718593 449.41081962 876.81586662 441.828125 886.203125 C441.08046875 887.13382813 440.3328125 888.06453125 439.5625 889.0234375 C425.90828829 905.87018072 411.383824 921.72977708 396.078125 937.078125 C395.53451324 937.62441559 394.99090149 938.17070618 394.43081665 938.73355103 C388.41108815 944.77574586 382.34517664 950.6921703 375.828125 956.203125 C374.70984849 957.17583276 373.59263085 958.14975942 372.4765625 959.125 C339.84810685 987.39083542 303.96970646 1011.06284894 265.828125 1031.203125 C264.96558105 1031.66041992 264.10303711 1032.11771484 263.21435547 1032.58886719 C230.68705726 1049.70590345 195.7256586 1062.99257261 160.19555664 1072.28662109 C157.97299258 1072.89152978 155.7667538 1073.56045623 153.58374023 1074.29541016 C139.64782542 1078.58706347 125.03076097 1077.80837766 110.59161377 1077.82476807 C104.10911906 1077.83465512 97.62680711 1077.87760017 91.14453125 1077.9296875 C90.4388117 1077.93466814 89.73309216 1077.93964878 89.00598717 1077.94478035 C80.02965672 1078.01609201 71.13826014 1078.37591699 62.1953125 1079.20703125 C48.29992907 1080.49224228 34.41839355 1080.55899406 20.47407913 1080.52118301 C18.35632501 1080.5155335 16.23857893 1080.51271875 14.12081909 1080.51010132 C-6.78203361 1080.47256271 -27.42485177 1079.97703941 -48.171875 1077.203125 C-49.50104345 1077.03439924 -50.8303105 1076.8664487 -52.15966797 1076.69921875 C-116.87179769 1068.45514558 -180.85896492 1048.29050061 -238.0612793 1016.85571289 C-242.22796848 1014.59690376 -246.30607738 1012.73307163 -250.7890625 1011.1796875 C-255.58883442 1009.50441852 -259.65055295 1007.40600095 -263.859375 1004.578125 C-264.47748047 1004.18367187 -265.09558594 1003.78921875 -265.73242188 1003.3828125 C-267.25468088 1002.38483096 -268.72002565 1001.30101984 -270.171875 1000.203125 C-270.171875 999.543125 -270.171875 998.883125 -270.171875 998.203125 C-270.73777344 997.94144531 -271.30367187 997.67976562 -271.88671875 997.41015625 C-274.37219263 996.0973162 -276.48466145 994.57700739 -278.734375 992.890625 C-283.05965026 989.69568834 -287.45635896 986.64972966 -291.921875 983.65429688 C-301.19737993 977.41860085 -309.9314307 970.76153499 -318.5 963.59130859 C-320.71276253 961.75401774 -322.97164533 959.97832574 -325.234375 958.203125 C-340.90269202 945.67370287 -355.52265383 931.90760761 -369.734375 917.765625 C-370.37689209 917.12778076 -371.01940918 916.48993652 -371.68139648 915.83276367 C-375.47348431 912.02779949 -379.06900253 908.10139899 -382.57983398 904.03588867 C-384.63929974 901.66502386 -386.78028066 899.37480031 -388.921875 897.078125 C-393.67062787 891.8702782 -398.02420692 886.42612897 -402.33203125 880.8515625 C-404.20284299 878.43248732 -406.10416048 876.04460026 -408.04296875 873.6796875 C-468.76604181 799.51108105 -507.18490125 704.41693131 -522.375 558.03125 C-522.38201431 556.72207108 -522.38902863 555.41289215 -522.39625549 554.06404114 C-522.41565589 549.86039745 -522.42068979 545.65680894 -522.421875 541.453125 C-522.42231686 540.73668194 -522.42275871 540.02023888 -522.42321396 539.28208542 C-522.43027651 517.44531436 -522.07030702 495.88145658 -519.171875 474.203125 C-519.00314924 472.87395655 -518.8351987 471.5446895 -518.66796875 470.21533203 C-512.26458517 419.95175722 -498.56274925 370.57711911 -478.171875 324.203125 C-477.71973633 323.17251953 -477.26759766 322.14191406 -476.80175781 321.08007812 C-462.8613041 289.55156417 -446.19257462 259.29300393 -426.171875 231.203125 C-425.41656494 230.13118896 -425.41656494 230.13118896 -424.64599609 229.03759766 C-417.3459921 218.67927147 -409.70525879 208.69717099 -401.61181641 198.94726562 C-399.58433102 196.49145763 -397.60181804 193.99989632 -395.609375 191.515625 C-391.29843895 186.24758204 -386.70185902 181.27420193 -382.0546875 176.3046875 C-379.66820247 173.75072984 -377.35066568 171.14465671 -375.046875 168.515625 C-370.56729385 163.51822071 -365.84634602 158.76844033 -361.109375 154.015625 C-360.35317871 153.25483643 -359.59698242 152.49404785 -358.81787109 151.71020508 C-354.65728752 147.56093974 -350.4091575 143.58060608 -345.95629883 139.74682617 C-343.59837483 137.70699125 -341.32696815 135.57925687 -339.046875 133.453125 C-333.8390282 128.70437213 -328.39487897 124.35079308 -322.8203125 120.04296875 C-320.40123732 118.17215701 -318.01335026 116.27083952 -315.6484375 114.33203125 C-241.47983105 53.60895819 -146.38568131 15.19009875 0 0 Z " fill="#000000" transform="translate(522.171875,-0.203125)"/>
<path d="M0 0 C1.30917892 -0.00701431 2.61835785 -0.01402863 3.96720886 -0.02125549 C8.17085255 -0.04065589 12.37444106 -0.04568979 16.578125 -0.046875 C17.65278959 -0.04753778 17.65278959 -0.04753778 18.74916458 -0.04821396 C40.58593564 -0.05527651 62.14979342 0.30469298 83.828125 3.203125 C85.15729345 3.37185076 86.4865605 3.5398013 87.81591797 3.70703125 C138.07949278 10.11041483 187.45413089 23.81225075 233.828125 44.203125 C234.85873047 44.65526367 235.88933594 45.10740234 236.95117188 45.57324219 C268.47968583 59.5136959 298.73824607 76.18242538 326.828125 96.203125 C327.54274902 96.70666504 328.25737305 97.21020508 328.99365234 97.72900391 C339.35197853 105.0290079 349.33407901 112.66974121 359.08398438 120.76318359 C361.53979237 122.79066898 364.03135368 124.77318196 366.515625 126.765625 C371.78366796 131.07656105 376.75704807 135.67314098 381.7265625 140.3203125 C384.28052016 142.70679753 386.88659329 145.02433432 389.515625 147.328125 C394.51302929 151.80770615 399.26280967 156.52865398 404.015625 161.265625 C405.15680786 162.39991943 405.15680786 162.39991943 406.32104492 163.55712891 C410.47031026 167.71771248 414.45064392 171.9658425 418.28442383 176.41870117 C420.32425875 178.77662517 422.45199313 181.04803185 424.578125 183.328125 C429.32687787 188.5359718 433.68045692 193.98012103 437.98828125 199.5546875 C439.85909299 201.97376268 441.76041048 204.36164974 443.69921875 206.7265625 C504.42229181 280.89516895 542.84115125 375.98931869 557.828125 520.203125 C524.48232492 514.91014086 505.11995353 492.19252597 485.578125 466.390625 C483.0000574 462.99073845 480.41642094 459.59522792 477.828125 456.203125 C477.08691406 455.22214844 476.34570312 454.24117188 475.58203125 453.23046875 C472.81103888 450.02747312 469.50099227 448.23121679 465.828125 446.203125 C464.755625 445.605 463.683125 445.006875 462.578125 444.390625 C454.77379195 441.91925287 447.82164843 442.6783329 440.140625 445.265625 C430.05191303 448.61241927 430.05191303 448.61241927 424.828125 446.203125 C420.95182338 442.25706988 419.1749341 436.76954063 417.01953125 431.765625 C412.51278309 422.07242239 406.51186832 413.00118098 400.953125 403.890625 C399.13466214 400.90836519 397.31627395 397.92606058 395.49853516 394.94335938 C394.46547338 393.24866699 393.43148219 391.5545403 392.39599609 389.86132812 C380.24077043 369.92221402 370.68745217 348.77519079 361.27246094 327.44750977 C359.90690533 324.38008779 358.50849353 321.32986054 357.1015625 318.28125 C349.31599962 301.19011547 345.08106149 282.32600593 341.43286133 263.97546387 C337.45029422 244.07377544 333.27945093 224.29188217 324.40429688 205.90527344 C322.54135417 202.03938732 320.92131179 198.57669176 320.828125 194.203125 C325.04158517 187.58736365 333.33187505 184.15105951 340.24194336 180.99267578 C345.51793453 178.55346618 348.91677948 176.61992103 351.0625 170.9296875 C353.20116235 160.52007586 351.90082917 149.28871544 351.015625 138.765625 C350.91072754 137.38866455 350.91072754 137.38866455 350.80371094 135.98388672 C350.72282227 135.12939941 350.64193359 134.27491211 350.55859375 133.39453125 C350.49051514 132.63342041 350.42243652 131.87230957 350.35229492 131.08813477 C349.93845461 128.80504827 349.93845461 128.80504827 346.828125 127.203125 C342.70537349 126.25042373 339.16922646 126.5410892 335.3671875 128.41796875 C330.72149324 131.53219598 326.87109103 135.10423904 323.015625 139.140625 C315.17850736 147.2369229 304.86530734 153.96663541 293.578125 155.703125 C287.85101438 154.93951025 283.00852553 152.69318866 277.828125 150.203125 C276.60609375 149.62111328 276.60609375 149.62111328 275.359375 149.02734375 C263.83305558 142.8223418 254.11022006 132.18673958 245.828125 122.203125 C222.51016084 94.56807842 222.51016084 94.56807842 190.6484375 80.796875 C179.0912046 80.40978475 170.20893703 82.2213726 159.828125 87.203125 C159.03229004 87.58355957 158.23645508 87.96399414 157.41650391 88.35595703 C151.50537365 91.21199861 145.66228703 94.19377023 139.828125 97.203125 C133.15898236 100.61840972 126.51508622 103.98467516 119.578125 106.828125 C103.18391816 113.57107735 89.82758916 123.85600893 75.765625 134.515625 C74.89768311 135.17280518 74.02974121 135.82998535 73.13549805 136.50708008 C66.17016272 141.83240593 59.62549962 147.48369972 53.265625 153.515625 C44.4974731 161.40161528 34.38843864 167.34725724 24.203125 173.203125 C8.64048495 182.19917598 -3.08724433 192.25140753 -11.546875 208.390625 C-12.06636719 209.34904297 -12.58585937 210.30746094 -13.12109375 211.29492188 C-17.24584961 219.00619025 -19.547969 225.13124342 -19.484375 233.890625 C-19.47946045 234.69371094 -19.4745459 235.49679688 -19.46948242 236.32421875 C-19.34376492 242.71969361 -18.18325008 248.13681775 -16.171875 254.203125 C-15.59048359 256.30100547 -15.03548648 258.40514945 -14.47900391 260.50976562 C-9.9651808 277.39836459 -3.62450832 292.85542274 3.79296875 308.68359375 C10.59571389 323.22304559 16.89640182 337.91794449 21.828125 353.203125 C22.33859375 354.74806641 22.33859375 354.74806641 22.859375 356.32421875 C25.57637754 365.59473204 27.3491361 379.30388569 23.05859375 388.328125 C18.16231776 395.78911699 11.90917619 402.25844168 5.9140625 408.83203125 C3.0059366 412.13770994 0.38111714 415.61892427 -2.171875 419.203125 C-5.8442309 417.75163228 -7.22013402 415.98695068 -9.234375 412.640625 C-11.34791445 408.92363152 -11.34791445 408.92363152 -15.171875 407.203125 C-16.64873611 407.11065119 -18.12963001 407.07313429 -19.609375 407.078125 C-20.75212891 407.07425781 -20.75212891 407.07425781 -21.91796875 407.0703125 C-25.14050757 407.22203674 -25.14050757 407.22203674 -28.171875 408.203125 C-29.75208783 410.73331694 -29.75208783 410.73331694 -30.921875 413.765625 C-31.34984375 414.77753906 -31.7778125 415.78945313 -32.21875 416.83203125 C-32.53328125 417.61449219 -32.8478125 418.39695312 -33.171875 419.203125 C-34.161875 419.203125 -35.151875 419.203125 -36.171875 419.203125 C-36.171875 418.543125 -36.171875 417.883125 -36.171875 417.203125 C-39.56918195 417.22601004 -42.96315805 417.30342786 -46.359375 417.390625 C-47.31908203 417.39642578 -48.27878906 417.40222656 -49.26757812 417.40820312 C-55.18084664 417.58226129 -55.18084664 417.58226129 -60.19921875 420.546875 C-62.40981113 423.50514626 -62.40981113 423.50514626 -64.546875 426.515625 C-67.171875 429.203125 -67.171875 429.203125 -70.609375 429.703125 C-74.171875 429.203125 -74.171875 429.203125 -77.109375 428.203125 C-81.72493185 426.69600439 -85.71278457 426.25092081 -90.25 428.0078125 C-95.93574587 431.15450392 -98.98126244 435.65580999 -102.171875 441.203125 C-102.93628906 441.038125 -103.70070313 440.873125 -104.48828125 440.703125 C-115.07227355 439.07285904 -121.6065862 442.68370091 -130.171875 448.203125 C-130.84669922 448.63222168 -131.52152344 449.06131836 -132.21679688 449.50341797 C-147.03610754 458.76286149 -147.03610754 458.76286149 -154.75024414 474.05053711 C-155.63761273 478.58089543 -155.47597654 483.22688634 -155.546875 487.828125 C-155.82399215 496.93749824 -156.69688261 504.70180432 -160.171875 513.203125 C-161.07193127 515.48780272 -161.96514434 517.77507152 -162.85693359 520.06298828 C-163.46328706 521.60485853 -164.08006458 523.14268935 -164.70947266 524.67529297 C-164.99870605 525.39088379 -165.28793945 526.10647461 -165.5859375 526.84375 C-165.8432666 527.46797852 -166.1005957 528.09220703 -166.36572266 528.73535156 C-168.90672119 536.51379285 -169.39767061 543.62572087 -169.19140625 551.78125 C-169.16123621 554.01691547 -169.13196762 556.25259325 -169.10351562 558.48828125 C-169.04792341 561.96830502 -168.98449983 565.44769289 -168.90454102 568.92724609 C-168.36421653 593.91681064 -168.36421653 593.91681064 -174.171875 604.203125 C-174.54465576 604.89422363 -174.91743652 605.58532227 -175.30151367 606.29736328 C-176.25231227 607.95304502 -177.301721 609.55107537 -178.359375 611.140625 C-182.55107422 617.48026951 -184.32465835 622.19280606 -184.19384766 629.72387695 C-184.08241905 642.29673783 -188.24129206 651.70372462 -193.91015625 662.73486328 C-195.63042729 666.10017679 -197.21697967 669.52037546 -198.796875 672.953125 C-199.34601563 674.12359375 -199.89515625 675.2940625 -200.4609375 676.5 C-202.77390434 681.47139431 -204.97506016 686.49256475 -207.18969727 691.50830078 C-209.31475452 696.30933703 -211.49623252 701.0788497 -213.734375 705.828125 C-216.16071536 710.98496038 -218.51193846 716.16952309 -220.796875 721.390625 C-221.06185791 721.99535645 -221.32684082 722.60008789 -221.59985352 723.22314453 C-230.20314825 742.9967825 -238.37341058 763.04363635 -244.9765625 783.578125 C-245.9596768 786.55959582 -247.0253216 789.43401292 -248.234375 792.328125 C-253.68969625 805.59600507 -256.94157587 819.69656393 -260.48730469 833.55908203 C-261.08602111 835.87152814 -261.70261066 838.17731082 -262.3359375 840.48046875 C-264.36794474 847.8717012 -266.05723188 855.23515722 -267.4609375 862.765625 C-268.171875 866.203125 -268.171875 866.203125 -269.203125 869.75 C-270.12016002 873.01878613 -270.64071748 876.08781983 -271.046875 879.453125 C-272.91672893 893.26354224 -275.7466081 907.37928159 -279.953125 920.671875 C-285.52389443 938.72116794 -288.52827139 967.90123312 -280.703125 985.5078125 C-279.28084488 988.14439781 -277.80218763 990.69100806 -276.171875 993.203125 C-281.05766899 991.59033863 -284.85386097 988.80350724 -288.984375 985.828125 C-289.73066162 985.29501709 -290.47694824 984.76190918 -291.24584961 984.21264648 C-319.23811387 964.13220146 -345.31291621 942.06724487 -369.734375 917.765625 C-370.37689209 917.12778076 -371.01940918 916.48993652 -371.68139648 915.83276367 C-375.47348431 912.02779949 -379.06900253 908.10139899 -382.57983398 904.03588867 C-384.63929974 901.66502386 -386.78028066 899.37480031 -388.921875 897.078125 C-393.67062787 891.8702782 -398.02420692 886.42612897 -402.33203125 880.8515625 C-404.20284299 878.43248732 -406.10416048 876.04460026 -408.04296875 873.6796875 C-468.76604181 799.51108105 -507.18490125 704.41693131 -522.375 558.03125 C-522.38201431 556.72207108 -522.38902863 555.41289215 -522.39625549 554.06404114 C-522.41565589 549.86039745 -522.42068979 545.65680894 -522.421875 541.453125 C-522.42231686 540.73668194 -522.42275871 540.02023888 -522.42321396 539.28208542 C-522.43027651 517.44531436 -522.07030702 495.88145658 -519.171875 474.203125 C-519.00314924 472.87395655 -518.8351987 471.5446895 -518.66796875 470.21533203 C-512.26458517 419.95175722 -498.56274925 370.57711911 -478.171875 324.203125 C-477.71973633 323.17251953 -477.26759766 322.14191406 -476.80175781 321.08007812 C-462.8613041 289.55156417 -446.19257462 259.29300393 -426.171875 231.203125 C-425.41656494 230.13118896 -425.41656494 230.13118896 -424.64599609 229.03759766 C-417.3459921 218.67927147 -409.70525879 208.69717099 -401.61181641 198.94726562 C-399.58433102 196.49145763 -397.60181804 193.99989632 -395.609375 191.515625 C-391.29843895 186.24758204 -386.70185902 181.27420193 -382.0546875 176.3046875 C-379.66820247 173.75072984 -377.35066568 171.14465671 -375.046875 168.515625 C-370.56729385 163.51822071 -365.84634602 158.76844033 -361.109375 154.015625 C-360.35317871 153.25483643 -359.59698242 152.49404785 -358.81787109 151.71020508 C-354.65728752 147.56093974 -350.4091575 143.58060608 -345.95629883 139.74682617 C-343.59837483 137.70699125 -341.32696815 135.57925687 -339.046875 133.453125 C-333.8390282 128.70437213 -328.39487897 124.35079308 -322.8203125 120.04296875 C-320.40123732 118.17215701 -318.01335026 116.27083952 -315.6484375 114.33203125 C-241.47983105 53.60895819 -146.38568131 15.19009875 0 0 Z " fill="#FEFEFE" transform="translate(522.171875,-0.203125)"/>
<path d="M0 0 C4.09286641 3.00700389 6.67509102 5.41674953 9 10 C9.37854004 13.14916992 9.37854004 13.14916992 9.38476562 16.73046875 C9.3901384 17.38641022 9.39551117 18.04235168 9.40104675 18.71817017 C9.41079198 20.13513249 9.41377877 21.55215426 9.41069031 22.96914673 C9.40619628 25.21433813 9.42025549 27.45874798 9.43908691 29.70385742 C9.48202301 35.27783342 9.49310889 40.85179101 9.50531006 46.42590332 C9.51685194 51.14141436 9.54045054 55.85656816 9.58000183 60.57192993 C9.59354733 62.77947122 9.58940631 64.98652544 9.58459473 67.1940918 C9.59393778 68.55257788 9.60410722 69.91105861 9.61523438 71.26953125 C9.61728882 72.45135986 9.61934326 73.63318848 9.62145996 74.85083008 C10.14752558 79.22730242 11.7054604 81.86727785 15 84.75 C18.26978187 86.79361367 20.90486954 87.12162503 24.66796875 87.09765625 C25.56064453 87.09443359 26.45332031 87.09121094 27.37304688 87.08789062 C28.30181641 87.07951172 29.23058594 87.07113281 30.1875 87.0625 C31.12787109 87.05798828 32.06824219 87.05347656 33.03710938 87.04882812 C35.35813712 87.03704626 37.67903644 87.02059558 40 87 C40.23074219 87.78503906 40.46148438 88.57007813 40.69921875 89.37890625 C42.71536095 95.87359358 44.83294453 100.65762119 49 106 C49.7425 107.60875 49.7425 107.60875 50.5 109.25 C52.32492569 112.5956971 53.54851426 113.42432173 57 115 C57.72058594 115.17402344 58.44117188 115.34804688 59.18359375 115.52734375 C61.67098696 116.15225534 63.75087549 116.75616599 66 118 C67.2933986 120.19537395 68.069324 122.393518 68.94921875 124.78125 C70.86562278 128.82778341 73.92523291 130.42750183 78 132 C81.56405194 132.88597901 85.10987688 133.61182033 88.73046875 134.2265625 C92.13459918 135.03184067 94.3233746 135.73973855 97 138 C97.56640625 140.7421875 97.56640625 140.7421875 97.5625 143.875 C97.77406309 148.6461789 97.77406309 148.6461789 99.625 153 C106.53929531 158.82256447 112.60516177 159.85890356 121.4375 160.75 C122.55060547 160.87503906 123.66371094 161.00007812 124.81054688 161.12890625 C127.53914583 161.4333851 130.26846736 161.7233084 133 162 C129.96739299 165.21510017 127.31082592 167.66577349 123.3125 169.5625 C122.16201172 170.12130859 122.16201172 170.12130859 120.98828125 170.69140625 C118.42715824 171.81294378 115.85589895 172.85000108 113.25390625 173.87109375 C108.25585496 175.85485876 103.45062118 178.13332162 98.625 180.5 C90.05978999 184.64458294 81.38301307 188.46915088 72.625 192.1875 C58.18918445 198.32104542 58.18918445 198.32104542 44 205 C43.25459961 205.36802734 42.50919922 205.73605469 41.74121094 206.11523438 C25.29532685 214.30192297 13.01911681 222.65430559 2.01953125 237.7109375 C1.05080078 238.99871094 1.05080078 238.99871094 0.0625 240.3125 C-0.48277344 241.07175781 -1.02804687 241.83101562 -1.58984375 242.61328125 C-9.25240438 250.20132751 -19.17609801 252.95263312 -29.25390625 255.921875 C-43.14019815 260.23812369 -50.20422436 268.9745341 -57.92944336 280.73266602 C-58.90410833 282.18902034 -59.94686994 283.59933702 -61 285 C-61.66 285 -62.32 285 -63 285 C-63 285.66 -63 286.32 -63 287 C-72.18842675 292.87038376 -81.3378935 294.70998898 -92.03588867 296.01831055 C-105.50131824 297.67358969 -119.60189825 299.79171271 -128.64135742 311.04296875 C-133.43644674 317.81350728 -137.22356103 324.90482058 -140.9375 332.3125 C-153.51758093 356.99645612 -167.51721067 372.24222543 -190.3125 387.8125 C-190.92818848 388.23917969 -191.54387695 388.66585938 -192.17822266 389.10546875 C-195.50204012 391.31948966 -196.87904709 392 -201 392 C-201.48076037 378.6274654 -201.0941231 366.79340463 -197 354 C-196.4965752 352.35832434 -195.99402085 350.71638159 -195.4921875 349.07421875 C-194.0385535 344.3754943 -192.52137904 339.69937002 -190.98730469 335.02636719 C-189.98786069 331.9627896 -189.0124388 328.89226121 -188.0390625 325.8203125 C-181.95125793 306.84204294 -174.63288619 288.40124732 -167 270 C-166.60032013 269.03326355 -166.60032013 269.03326355 -166.19256592 268.04699707 C-163.308338 261.09551818 -160.34074732 254.350547 -156.5 247.875 C-155.72341101 246.52319619 -154.94868263 245.17032185 -154.17578125 243.81640625 C-153.80533691 243.16945801 -153.43489258 242.52250977 -153.05322266 241.85595703 C-149.22939352 235.11772126 -146.05466913 228.57290416 -143.875 221.125 C-141.34843248 212.50796689 -137.57948802 207.6850557 -130 203 C-127.96695948 202.02350022 -125.92473779 201.06594663 -123.875 200.125 C-118.03625791 197.25312811 -115.16874136 194.62596378 -112 189 C-111.65340332 188.3915625 -111.30680664 187.783125 -110.94970703 187.15625 C-107.10568368 180.3482187 -103.3528633 173.58578887 -100.9375 166.125 C-97.9628292 157.36034498 -92.51524399 150.96215693 -85.25 145.375 C-80.23901152 141.50918202 -77.73927128 138.06425921 -76 132 C-75.814375 131.41863281 -75.62875 130.83726562 -75.4375 130.23828125 C-74.91546746 127.56752548 -74.81231975 124.92792272 -74.7097168 122.21289062 C-74.04509889 104.85238144 -68.84362591 92.30794129 -59.14453125 78.16015625 C-56.74222334 74.62014332 -55.88580598 73.11577596 -55.89453125 68.96484375 C-55.68873361 53.27395229 -55.68873361 53.27395229 -50.68359375 47.30859375 C-48.0526501 43.70096568 -46.69368256 39.56668469 -45.1809082 35.40136719 C-42.35319619 27.80333208 -38.24223999 22.90208739 -32.1875 17.75 C-31.21031006 16.91118286 -31.21031006 16.91118286 -30.21337891 16.05541992 C-7.23717869 -3.28962668 -7.23717869 -3.28962668 0 0 Z " fill="#FDFDFD" transform="translate(594,408)"/>
<path d="M0 0 C0.01417969 1.23105469 0.02835938 2.46210937 0.04296875 3.73046875 C0.32832408 16.38362995 1.58489496 28.78944092 3.3125 41.3125 C3.41323822 42.04568451 3.51397644 42.77886902 3.61776733 43.53427124 C4.62768663 50.82695698 5.67553714 58.11084536 6.89306641 65.37207031 C10.33258023 86.18347326 12.33888319 107.13598881 14.44671631 128.11517334 C14.95826673 133.19186602 15.47754946 138.26776779 15.99609375 143.34375 C17.00477046 153.22842671 18.00517077 163.11392068 19 173 C20.65 173.33 22.3 173.66 24 174 C24 174.33 24 174.66 24 175 C5.87501889 176.80271997 -12.14878952 177.36742292 -30.35404587 177.31805801 C-32.47179999 177.3124085 -34.58954607 177.30959375 -36.70730591 177.30697632 C-57.61015861 177.26943771 -78.25297677 176.77391441 -99 174 C-100.32916845 173.83127424 -101.6584355 173.6633237 -102.98779297 173.49609375 C-170.87697677 164.84727627 -235.88084947 142.51045265 -296 110 C-292.42728788 108.98860373 -290.04244332 109.1686059 -286.375 109.875 C-272.4434825 112.36517463 -258.57565208 113.76838107 -245 109 C-244.07501709 108.67805664 -244.07501709 108.67805664 -243.13134766 108.34960938 C-233.084392 104.81992643 -223.1869278 101.23850302 -214.6875 94.6875 C-210.9199782 92.09281575 -208.50092909 91.75597321 -203.96484375 91.9921875 C-197.23119501 92.11977044 -191.37223902 91.12923207 -184.875 89.4375 C-183.71339355 89.14157959 -182.55178711 88.84565918 -181.35498047 88.54077148 C-163.3432845 83.72895349 -145.83957935 77.15468158 -128.31640625 70.83306885 C-125.05898262 69.66157393 -121.79528143 68.50842367 -118.53125 67.35546875 C-116.56214576 66.65464034 -114.59335351 65.95293416 -112.625 65.25 C-111.78340332 64.9516626 -110.94180664 64.6533252 -110.07470703 64.34594727 C-106.0816409 62.89535787 -102.62384494 61.25302719 -99 59 C-98.34 59 -97.68 59 -97 59 C-96.56033498 57.70906867 -96.12344701 56.41719164 -95.6875 55.125 C-95.40777344 54.30515625 -95.12804687 53.4853125 -94.83984375 52.640625 C-93.97420519 50.02779109 -93.97420519 50.02779109 -93.37890625 47.421875 C-91.05053275 37.99268542 -85.95439652 34.09722288 -77.9375 29 C-59.24140622 17.8233638 -38.83711953 10.1724756 -18 4 C-17.25081299 3.77352783 -16.50162598 3.54705566 -15.72973633 3.3137207 C-13.96859906 2.7826267 -12.20323473 2.26560273 -10.4375 1.75 C-9.30183594 1.41484375 -8.16617187 1.0796875 -6.99609375 0.734375 C-4 0 -4 0 0 0 Z " fill="#FEFEFE" transform="translate(573,903)"/>
</svg>
